<svg xmlns="http://www.w3.org/2000/svg" viewBox="0 0 48 48">
  <path fill="#f2f2e4" stroke="#292923" stroke-width="2.5" stroke-linejoin="round" d="M24 6 28 18 40 14 34 25 44 33 31 33 28 45 21 34 10 41 14 28 3 22 16 19Z"/>
  <path fill="#f49a8a" d="M24 13 26.8 22 35 19.5 30.8 26.3 37.5 31.4 29.3 31.2 27.2 38.8 22.6 31.8 15.4 36.1 18.2 27.8 10.8 23.9 19.2 22Z"/>
  <circle cx="20" cy="23" r="1.7" fill="#292923"/>
  <circle cx="28" cy="23" r="1.7" fill="#292923"/>
  <path fill="none" stroke="#292923" stroke-width="1.8" stroke-linecap="round" d="M20.3 29c2.5 2.3 5 2.3 7.4 0"/>
</svg>
